<svg version="1.1" xmlns="http://www.w3.org/2000/svg" viewBox="0 0 1114.1304542803362 1054.1230894270923" width="1114.1304542803362" height="1054.1230894270923">
  <!-- svg-source:excalidraw -->
  
  <defs>
    <style class="style-fonts">
      @font-face {
        font-family: "Virgil";
        src: url("https://excalidraw.com/Virgil.woff2");
      }
      @font-face {
        font-family: "Cascadia";
        src: url("https://excalidraw.com/Cascadia.woff2");
      }
    </style>
    
  </defs>
  <rect x="0" y="0" width="1114.1304542803362" height="1054.1230894270923" fill="#ffffff"></rect><g stroke-linecap="round" transform="translate(45.3407648263601 314.7744451060603) rotate(0 125.94171085743716 56.61016271607923)"><path d="M28.31 0 M28.31 0 C106.31 0.95, 186.27 0.84, 223.58 0 M28.31 0 C91 1.45, 152.1 -0.07, 223.58 0 M223.58 0 C242.42 -1.92, 251.95 11.39, 251.88 28.31 M223.58 0 C241.99 -1.79, 251.42 8.9, 251.88 28.31 M251.88 28.31 C252.03 40.18, 251 53.02, 251.88 84.92 M251.88 28.31 C251.35 44.48, 252.76 60.2, 251.88 84.92 M251.88 84.92 C251.17 103.11, 243.35 114.96, 223.58 113.22 M251.88 84.92 C249.88 102.67, 240.47 114.95, 223.58 113.22 M223.58 113.22 C164.84 115.89, 108.17 116.32, 28.31 113.22 M223.58 113.22 C156.79 114.35, 90.41 112.91, 28.31 113.22 M28.31 113.22 C9.93 111.31, 0.95 102.68, 0 84.92 M28.31 113.22 C10.37 111.89, 0.71 105.96, 0 84.92 M0 84.92 C-1.72 60.77, 1.05 38.62, 0 28.31 M0 84.92 C-0.63 71.03, -0.97 56.7, 0 28.31 M0 28.31 C0.56 7.79, 8.63 -0.19, 28.31 0 M0 28.31 C-1.31 10.75, 8.73 1.44, 28.31 0" stroke="#1e1e1e" stroke-width="1" fill="none"></path></g><g transform="translate(74.3705112672933 348.8846078221395) rotate(0 96.9119644165039 22.5)"><text x="96.9119644165039" y="0" font-family="Virgil, Segoe UI Emoji" font-size="36px" fill="#1e1e1e" text-anchor="middle" style="white-space: pre;" direction="ltr" dominant-baseline="text-before-edge">Estudiante</text></g><g stroke-linecap="round" transform="translate(142.2272485339215 10) rotate(0 125.94171085743716 56.61016271607923)"><path d="M28.31 0 M28.31 0 C72.05 0.59, 114.96 2.17, 223.58 0 M28.31 0 C94.66 -1.21, 160.74 -1.39, 223.58 0 M223.58 0 C243.3 0.64, 251.56 9.63, 251.88 28.31 M223.58 0 C243.26 -1.8, 254.14 8.92, 251.88 28.31 M251.88 28.31 C250.57 42.79, 251.37 56.98, 251.88 84.92 M251.88 28.31 C252.28 42.21, 251.44 53.92, 251.88 84.92 M251.88 84.92 C250.65 103.64, 241.13 112.15, 223.58 113.22 M251.88 84.92 C249.89 104.74, 242.8 112.32, 223.58 113.22 M223.58 113.22 C161.47 114.61, 101.33 115.27, 28.31 113.22 M223.58 113.22 C145.95 113.16, 67.03 113.62, 28.31 113.22 M28.31 113.22 C9.42 112.68, 1.19 102.46, 0 84.92 M28.31 113.22 C7.73 114.7, -0.88 105.74, 0 84.92 M0 84.92 C-2.3 68.21, -1.58 49.29, 0 28.31 M0 84.92 C-0.03 66.48, 0.64 48.13, 0 28.31 M0 28.31 C0.59 8.3, 10.62 -0.58, 28.31 0 M0 28.31 C-0.06 8, 7.47 1.55, 28.31 0" stroke="#1e1e1e" stroke-width="1" fill="none"></path></g><g transform="translate(199.4989841105969 44.11016271607923) rotate(0 68.66997528076172 22.5)"><text x="68.66997528076172" y="0" font-family="Virgil, Segoe UI Emoji" font-size="36px" fill="#1e1e1e" text-anchor="middle" style="white-space: pre;" direction="ltr" dominant-baseline="text-before-edge">Carrera</text></g><g stroke-linecap="round" transform="translate(651.2202311328931 305.762935872885) rotate(0 125.9417108574371 56.61016271607923)"><path d="M28.31 0 M28.31 0 C105.17 2.37, 180.4 1.16, 223.58 0 M28.31 0 C106.26 -1.82, 183.38 -1.88, 223.58 0 M223.58 0 C243.72 1.2, 251.58 8.63, 251.88 28.31 M223.58 0 C240.17 -0.97, 251.27 10.59, 251.88 28.31 M251.88 28.31 C252.32 41.24, 252.84 57.24, 251.88 84.92 M251.88 28.31 C252.79 40.53, 251.18 51.51, 251.88 84.92 M251.88 84.92 C251.95 102.98, 240.9 113.94, 223.58 113.22 M251.88 84.92 C250.73 103.95, 241.65 112.38, 223.58 113.22 M223.58 113.22 C156.14 113.17, 88.82 112.39, 28.31 113.22 M223.58 113.22 C175.4 110.77, 125.45 110.6, 28.31 113.22 M28.31 113.22 C7.62 113.81, 1.8 102.62, 0 84.92 M28.31 113.22 C7.73 111.24, 1.92 101.87, 0 84.92 M0 84.92 C0.64 70.75, 1.76 60.86, 0 28.31 M0 84.92 C-0.65 63.46, -0.22 41.95, 0 28.31 M0 28.31 C1.01 10.4, 10.51 -0.85, 28.31 0 M0 28.31 C-1.87 9.2, 10.82 1.81, 28.31 0" stroke="#1e1e1e" stroke-width="1" fill="none"></path></g><g transform="translate(705.8459706158187 339.87309858896424) rotate(0 71.31597137451172 22.5)"><text x="71.31597137451172" y="0" font-family="Virgil, Segoe UI Emoji" font-size="36px" fill="#1e1e1e" text-anchor="middle" style="white-space: pre;" direction="ltr" dominant-baseline="text-before-edge">Docente</text></g><g stroke-linecap="round" transform="translate(313.9568555610507 315.12067180909276) rotate(0 125.94171085743716 56.61016271607923)"><path d="M28.31 0 M28.31 0 C102.44 -0.15, 174.76 2.01, 223.58 0 M28.31 0 C83.52 1.67, 140.08 1.53, 223.58 0 M223.58 0 C244.05 0.01, 251.86 7.67, 251.88 28.31 M223.58 0 C243.02 -0.52, 249.64 10.24, 251.88 28.31 M251.88 28.31 C250.48 49.34, 252.35 68.42, 251.88 84.92 M251.88 28.31 C252.16 40.57, 251.72 53.94, 251.88 84.92 M251.88 84.92 C251.83 102.43, 241.67 114.5, 223.58 113.22 M251.88 84.92 C250.22 104.35, 241.28 112.23, 223.58 113.22 M223.58 113.22 C179.66 109.65, 137.3 112.21, 28.31 113.22 M223.58 113.22 C146.58 112.61, 70.46 110.93, 28.31 113.22 M28.31 113.22 C8.91 114.33, 0.49 101.84, 0 84.92 M28.31 113.22 C11.29 113.66, 1.98 104.14, 0 84.92 M0 84.92 C0.05 65.08, 1.33 43.21, 0 28.31 M0 84.92 C0.14 65.49, 1.02 44.65, 0 28.31 M0 28.31 C-0.68 8.49, 8.65 0.43, 28.31 0 M0 28.31 C-0.05 11.36, 9.4 1.96, 28.31 0" stroke="#1e1e1e" stroke-width="1" fill="none"></path></g><g transform="translate(390.596579724152 349.230834525172) rotate(0 49.30198669433594 22.5)"><text x="49.30198669433594" y="0" font-family="Virgil, Segoe UI Emoji" font-size="36px" fill="#1e1e1e" text-anchor="middle" style="white-space: pre;" direction="ltr" dominant-baseline="text-before-edge">Curso</text></g><g stroke-linecap="round" transform="translate(468.1854614142874 540.963529234092) rotate(0 157.74517442063427 56.61016271607923)"><path d="M28.31 0 M28.31 0 C81.09 -0.1, 133.56 0.55, 287.19 0 M28.31 0 C105.51 -1.3, 183.37 -0.02, 287.19 0 M287.19 0 C307.48 1.54, 313.68 10.01, 315.49 28.31 M287.19 0 C306.13 -0.93, 313.71 10.27, 315.49 28.31 M315.49 28.31 C314.8 43.26, 315.48 55.21, 315.49 84.92 M315.49 28.31 C316.1 42.58, 315.42 57.04, 315.49 84.92 M315.49 84.92 C316.43 102.15, 304.37 111.25, 287.19 113.22 M315.49 84.92 C313.41 104.46, 308.12 111.88, 287.19 113.22 M287.19 113.22 C227.34 113.6, 169.76 115.84, 28.31 113.22 M287.19 113.22 C203.27 115.59, 119.17 115.51, 28.31 113.22 M28.31 113.22 C8.3 114.03, -0.27 105.28, 0 84.92 M28.31 113.22 C10.6 114.33, 1.24 102.81, 0 84.92 M0 84.92 C1.63 72.14, -0.62 59.23, 0 28.31 M0 84.92 C0.71 70.14, 0.73 54.66, 0 28.31 M0 28.31 C-1.82 8.54, 8.77 -1.68, 28.31 0 M0 28.31 C2.07 10.96, 7.56 -1.25, 28.31 0" stroke="#1e1e1e" stroke-width="1" fill="none"></path></g><g transform="translate(490.5526756298435 575.0736919501712) rotate(0 135.37796020507818 22.5)"><text x="135.37796020507812" y="0" font-family="Virgil, Segoe UI Emoji" font-size="36px" fill="#1e1e1e" text-anchor="middle" style="white-space: pre;" direction="ltr" dominant-baseline="text-before-edge">CursoHabilitado</text></g><g stroke-linecap="round" transform="translate(778.0280378410184 773.129874271878) rotate(0 125.9417108574371 56.61016271607923)"><path d="M28.31 0 M28.31 0 C92.45 3.13, 156.63 3.45, 223.58 0 M28.31 0 C68.84 -0.83, 110.55 -0.56, 223.58 0 M223.58 0 C242.59 -0.7, 251.16 10.26, 251.88 28.31 M223.58 0 C242.39 -1.56, 250.99 10.9, 251.88 28.31 M251.88 28.31 C251.16 39.52, 252.96 52.45, 251.88 84.92 M251.88 28.31 C251.62 41.42, 250.74 52, 251.88 84.92 M251.88 84.92 C250.17 105.45, 240.78 111.54, 223.58 113.22 M251.88 84.92 C251.28 105.06, 243.02 110.99, 223.58 113.22 M223.58 113.22 C149.54 116.44, 73.75 115.71, 28.31 113.22 M223.58 113.22 C168.14 114.74, 111.32 113.39, 28.31 113.22 M28.31 113.22 C9.23 114.43, 1.57 103.38, 0 84.92 M28.31 113.22 C8.65 112.14, -0.9 104.28, 0 84.92 M0 84.92 C1.23 66.59, -2.3 50.28, 0 28.31 M0 84.92 C1.14 68.99, -0.07 54.62, 0 28.31 M0 28.31 C-1.29 8.34, 7.82 -0.24, 28.31 0 M0 28.31 C0.9 7.31, 8.49 -1.12, 28.31 0" stroke="#1e1e1e" stroke-width="1" fill="none"></path></g><g transform="translate(793.3777763473813 807.2400369879572) rotate(0 110.59197235107422 22.5)"><text x="110.59197235107422" y="0" font-family="Virgil, Segoe UI Emoji" font-size="36px" fill="#1e1e1e" text-anchor="middle" style="white-space: pre;" direction="ltr" dominant-baseline="text-before-edge">HorarioCurso</text></g><g stroke-linecap="round" transform="translate(10 708.5213200925534) rotate(0 149.4762787470264 56.61016271607923)"><path d="M28.31 0 M28.31 0 C102.36 0.72, 175.34 0.97, 270.65 0 M28.31 0 C91.64 -0.27, 156.63 -0.55, 270.65 0 M270.65 0 C290.01 -1.02, 298.09 7.76, 298.95 28.31 M270.65 0 C290.6 -1.88, 297.02 7.17, 298.95 28.31 M298.95 28.31 C297.96 38.68, 297.4 53.68, 298.95 84.92 M298.95 28.31 C299.03 40.81, 297.5 53.63, 298.95 84.92 M298.95 84.92 C299.34 105.51, 289.82 114.76, 270.65 113.22 M298.95 84.92 C297.65 104.72, 289.2 114.94, 270.65 113.22 M270.65 113.22 C185.02 112.95, 100.63 115.3, 28.31 113.22 M270.65 113.22 C178.53 112.21, 87.37 112.52, 28.31 113.22 M28.31 113.22 C11.11 113.19, 1.7 102.33, 0 84.92 M28.31 113.22 C7.34 112.19, -0.76 101.85, 0 84.92 M0 84.92 C-1.46 62.7, -1.66 39.66, 0 28.31 M0 84.92 C-0.86 72.1, -0.42 60.32, 0 28.31 M0 28.31 C0.42 7.6, 8.68 -0.03, 28.31 0 M0 28.31 C-1.04 10.12, 9.56 1.3, 28.31 0" stroke="#1e1e1e" stroke-width="1" fill="none"></path></g><g transform="translate(23.864325011674737 742.6314828086327) rotate(0 135.61195373535156 22.5)"><text x="135.61195373535156" y="0" font-family="Virgil, Segoe UI Emoji" font-size="36px" fill="#1e1e1e" text-anchor="middle" style="white-space: pre;" direction="ltr" dominant-baseline="text-before-edge">AsignacionCurso</text></g><g stroke-linecap="round" transform="translate(31.995035920901387 930.9027639949338) rotate(0 125.94171085743716 56.61016271607923)"><path d="M28.31 0 M28.31 0 C87.65 -0.69, 144.94 -0.26, 223.58 0 M28.31 0 C77.66 -1.76, 127.67 -1.82, 223.58 0 M223.58 0 C243.04 1.8, 250.72 7.95, 251.88 28.31 M223.58 0 C240.47 1.92, 249.96 7.5, 251.88 28.31 M251.88 28.31 C250.25 45.43, 252.58 61.04, 251.88 84.92 M251.88 28.31 C252.72 46.02, 253.07 64.5, 251.88 84.92 M251.88 84.92 C252.85 104.86, 241.6 111.59, 223.58 113.22 M251.88 84.92 C251.65 105.17, 244.25 112.76, 223.58 113.22 M223.58 113.22 C172.08 112.41, 121.39 112.42, 28.31 113.22 M223.58 113.22 C147.95 111.11, 72.37 112.34, 28.31 113.22 M28.31 113.22 C10.76 111.59, -1.09 103.64, 0 84.92 M28.31 113.22 C7.96 111.96, -1.86 103.51, 0 84.92 M0 84.92 C-0.45 66.15, 0.94 44.69, 0 28.31 M0 84.92 C0.31 70.13, 0.57 54.59, 0 28.31 M0 28.31 C-1.83 10.84, 8.47 0.76, 28.31 0 M0 28.31 C-1.21 10.61, 9.68 -2.29, 28.31 0" stroke="#1e1e1e" stroke-width="1" fill="none"></path></g><g transform="translate(104.4227620981627 965.012926711013) rotate(0 53.51398468017578 22.5)"><text x="53.51398468017578" y="0" font-family="Virgil, Segoe UI Emoji" font-size="36px" fill="#1e1e1e" text-anchor="middle" style="white-space: pre;" direction="ltr" dominant-baseline="text-before-edge">Notas</text></g><g stroke-linecap="round" transform="translate(413.5512117668569 767.2296025791213) rotate(0 125.94171085743716 56.61016271607923)"><path d="M28.31 0 M28.31 0 C94.11 -0.17, 164.44 3.44, 223.58 0 M28.31 0 C76.37 0.84, 121.92 1.42, 223.58 0 M223.58 0 C243.55 0.49, 249.94 11.05, 251.88 28.31 M223.58 0 C242.89 1.98, 252.23 11.2, 251.88 28.31 M251.88 28.31 C253.61 43.08, 253.08 56.92, 251.88 84.92 M251.88 28.31 C252.03 43.68, 251.22 57.15, 251.88 84.92 M251.88 84.92 C250.94 103, 242.88 113.18, 223.58 113.22 M251.88 84.92 C253.81 103.75, 244.4 111.55, 223.58 113.22 M223.58 113.22 C181.11 114.38, 143.32 110.94, 28.31 113.22 M223.58 113.22 C175.05 111.16, 127.51 112.36, 28.31 113.22 M28.31 113.22 C7.59 112.4, -0.98 104.21, 0 84.92 M28.31 113.22 C9.91 111.11, -0.87 103.75, 0 84.92 M0 84.92 C0.96 69.17, -2 57.45, 0 28.31 M0 84.92 C0.3 70.78, -1.21 57.13, 0 28.31 M0 28.31 C0.94 10.04, 9.63 0.47, 28.31 0 M0 28.31 C1.39 8.92, 9.66 1.62, 28.31 0" stroke="#1e1e1e" stroke-width="1" fill="none"></path></g><g transform="translate(486.69893916482135 801.3397652952006) rotate(0 52.793983459472656 22.5)"><text x="52.793983459472656" y="0" font-family="Virgil, Segoe UI Emoji" font-size="36px" fill="#1e1e1e" text-anchor="middle" style="white-space: pre;" direction="ltr" dominant-baseline="text-before-edge">Actas</text></g><g stroke-linecap="round" transform="translate(632.1670744137846 20.548849272065354) rotate(0 235.9816899332758 56.61016271607923)"><path d="M28.31 0 M28.31 0 C116.32 1.59, 206.76 2.14, 443.66 0 M28.31 0 C113.01 -0.35, 197.21 -0.74, 443.66 0 M443.66 0 C463.34 -0.27, 473.46 10.44, 471.96 28.31 M443.66 0 C463.64 1.24, 470.99 7.56, 471.96 28.31 M471.96 28.31 C471.9 44.03, 471.36 60.32, 471.96 84.92 M471.96 28.31 C471.94 47.35, 471.23 63.79, 471.96 84.92 M471.96 84.92 C471.07 103.12, 460.85 115.02, 443.66 113.22 M471.96 84.92 C473.49 101.91, 461.28 113.06, 443.66 113.22 M443.66 113.22 C345.61 111.82, 246.82 110.96, 28.31 113.22 M443.66 113.22 C338.81 113.48, 234.95 113.45, 28.31 113.22 M28.31 113.22 C10.03 113.33, 1.13 102.47, 0 84.92 M28.31 113.22 C7.33 114.84, -1.11 104.66, 0 84.92 M0 84.92 C-2.28 72.34, 0.65 57.53, 0 28.31 M0 84.92 C-0.36 67.47, 0.57 48.83, 0 28.31 M0 28.31 C1.82 9.39, 11.38 1.58, 28.31 0 M0 28.31 C-0.52 10.04, 7.34 -1.97, 28.31 0" stroke="#1e1e1e" stroke-width="1" fill="none"></path></g><g transform="translate(671.5348422279199 54.659011988144584) rotate(0 196.61392211914062 22.5)"><text x="196.61392211914062" y="0" font-family="Virgil, Segoe UI Emoji" font-size="36px" fill="#1e1e1e" text-anchor="middle" style="white-space: pre;" direction="ltr" dominant-baseline="text-before-edge">HistorialTransacciones</text></g><g stroke-linecap="round"><g transform="translate(174.80850792829528 312.076312333593) rotate(0 33.34140929476007 -91.95040352365561)"><path d="M-0.71 0.39 C10.5 -30.47, 56.09 -153.48, 67.39 -184.29 M1.12 -0.45 C12.19 -31.17, 55.76 -152.21, 66.64 -182.66" stroke="#1e1e1e" stroke-width="1" fill="none"></path></g></g><mask></mask><g stroke-linecap="round"><g transform="translate(300.4019443205558 125.96467651467128) rotate(0 47.88828329889617 92.83919442405613)"><path d="M-0.04 0.74 C16.33 31.61, 81.03 153.98, 97.3 184.64 M-1.52 0.08 C14.76 31.12, 79.93 154.69, 96.33 185.6" stroke="#1e1e1e" stroke-width="1" fill="none"></path></g></g><mask></mask><g stroke-linecap="round"><g transform="translate(156.02704944269942 928.7578343414082) rotate(0 0.02469486929476261 -48.444827911654556)"><path d="M1.16 -0.59 C0.78 -16.84, -0.76 -82.61, -1.11 -98.6 M0.31 1.71 C0.17 -14.31, 0.82 -80.88, 1.02 -97.54" stroke="#1e1e1e" stroke-width="1" fill="none"></path></g></g><mask></mask><g stroke-linecap="round"><g transform="translate(164.74893794071966 694.1390869788459) rotate(0 -2.2012675163388167 -127.9390629820598)"><path d="M0.44 -1.05 C-0.35 -43.79, -3.44 -214.29, -4.36 -256.89 M-0.78 1.01 C-1.7 -41.53, -4.03 -212.85, -4.84 -255.59" stroke="#1e1e1e" stroke-width="1" fill="none"></path></g></g><mask></mask><g stroke-linecap="round"><g transform="translate(279.87783949749564 706.3496776418913) rotate(0 90.67588920821112 -43.982516249403716)"><path d="M1.05 0.2 C31.14 -14.34, 151.19 -73.6, 181.2 -88.17 M0.15 -0.74 C30 -15.08, 150.13 -72.94, 180.14 -87.13" stroke="#1e1e1e" stroke-width="1" fill="none"></path></g></g><mask></mask><g stroke-linecap="round"><g transform="translate(524.0907174420627 530.1675565989733) rotate(0 -23.27762128062153 -50.424238438573184)"><path d="M0.37 1.16 C-7.34 -15.73, -38.36 -84.79, -46.36 -102 M-0.89 0.72 C-8.7 -15.97, -38.96 -83.89, -46.93 -100.9" stroke="#1e1e1e" stroke-width="1" fill="none"></path></g></g><mask></mask><g stroke-linecap="round"><g transform="translate(738.6491611848153 533.6563253067272) rotate(0 -6.860578666669198 -57.39128484141804)"><path d="M-0.32 0.02 C-2.52 -18.78, -12.05 -93.86, -14.3 -112.92 M1.71 -1.01 C-0.58 -20.17, -12.72 -96.05, -15.43 -114.8" stroke="#1e1e1e" stroke-width="1" fill="none"></path></g></g><mask></mask><g stroke-linecap="round"><g transform="translate(560.7226890593847 758.6810086300127) rotate(0 3.006589540208097 -46.936894886621076)"><path d="M-0.93 -1.07 C0.08 -16.83, 5.79 -79.23, 6.95 -94.85 M0.78 0.98 C1.55 -14.61, 4.72 -77.86, 5.98 -93.66" stroke="#1e1e1e" stroke-width="1" fill="none"></path></g></g><mask></mask><g stroke-linecap="round"><g transform="translate(848.5450094940531 769.147314753274) rotate(0 -65.51623282632477 -54.10321425805944)"><path d="M-0.83 -0.14 C-22.72 -18.12, -110.15 -90.03, -131.96 -108.07 M0.93 -1.26 C-20.54 -19.01, -108.14 -88.84, -129.85 -106.48" stroke="#1e1e1e" stroke-width="1" fill="none"></path></g></g><mask></mask></svg>