
<svg xmlns="http://www.w3.org/2000/svg" xmlns:xlink="http://www.w3.org/1999/xlink" version="1.1"  width="1272" height="842">
<defs id="dmw_defs" >
<svg id="fk_sym" viewBox="0 0 48.665 48.665" style="enable-background:new 0 0 48.665 48.665;" >
<g>
<path d="M40.332,31.592c-2.377,0-4.515,1-6.033,2.598l-17.737-8.686c0.061-0.406,0.103-0.82,0.103-1.246    c0-0.414-0.04-0.818-0.098-1.215l17.711-8.589c1.519,1.609,3.666,2.619,6.054,2.619c4.603,0,8.333-3.731,8.333-8.333    c0-4.603-3.73-8.333-8.333-8.333s-8.333,3.73-8.333,8.333c0,0.414,0.04,0.817,0.098,1.215l-17.709,8.589    c-1.519-1.609-3.666-2.619-6.054-2.619C3.73,15.925,0,19.656,0,24.258c0,4.603,3.73,8.333,8.333,8.333    c2.377,0,4.515-1,6.033-2.596l17.736,8.685c-0.062,0.406-0.104,0.82-0.104,1.245c0,4.604,3.73,8.333,8.333,8.333    s8.333-3.729,8.333-8.333C48.665,35.322,44.935,31.592,40.332,31.592z" fill="#13bf3b"/>
</g>
</svg>
<svg id="pk_sym" viewBox="0 0 480.509 480.509" style="enable-background:new 0 0 480.509 480.509;" >
<g>
<path d="M418.119,331.046c4.094,4.374,7.766,8.186,10.996,11.416c3.237,3.238,6.714,6.376,10.427,9.422   c3.71,3.042,6.427,4.568,8.135,4.568c3.241,0,9.517-4.661,18.843-13.99c9.328-9.321,13.989-15.604,13.989-18.842   c0-1.523-2.714-5.421-8.138-11.704c-5.421-6.276-12.364-13.702-20.838-22.271c-8.473-8.565-16.703-16.744-24.694-24.55   c-8.001-7.81-15.8-15.373-23.417-22.703c-7.611-7.327-11.992-11.56-13.135-12.703c-1.902-1.902-4.093-2.853-6.563-2.853   c-3.237,0-9.521,4.661-18.843,13.988c-9.328,9.322-13.989,15.605-13.989,18.843c0,1.711,1.522,4.421,4.568,8.138   c3.046,3.71,6.188,7.187,9.421,10.424c3.23,3.23,7.047,6.899,11.42,10.992c4.377,4.093,6.848,6.423,7.423,6.995l-27.408,27.404   L254.954,222.268c24.94-33.498,37.408-68.236,37.408-104.211c0-31.024-9.761-56.293-29.263-75.801   c-19.512-19.511-44.778-29.265-75.805-29.265c-30.454,0-60.244,9.042-89.363,27.119c-29.121,18.083-52.727,41.686-70.808,70.808   C9.042,140.038,0,169.828,0,200.28c0,31.029,9.753,56.286,29.265,75.803c19.511,19.517,44.777,29.27,75.801,29.27   c35.976,0,70.71-12.467,104.212-37.407l191.574,191.579c5.332,5.328,11.796,7.994,19.417,7.994c7.991,0,15.704-3.72,23.12-11.14   c7.426-7.426,11.143-15.129,11.143-23.127c0-7.617-2.666-14.092-7.994-19.417l-62.811-62.811l27.405-27.404   C411.699,324.195,414.033,326.666,418.119,331.046z M221.556,161.458c-10.656,10.657-23.601,15.987-38.828,15.987   c-7.996,0-15.896-1.812-23.7-5.43c3.617,7.808,5.426,15.706,5.426,23.7c0,15.229-5.327,28.171-15.987,38.828   c-10.66,10.655-23.606,15.986-38.831,15.986c-15.227,0-28.168-5.325-38.828-15.986c-10.657-10.657-15.987-23.599-15.987-38.828   c0-15.227,5.327-28.171,15.987-38.828C81.464,146.23,94.409,140.9,109.636,140.9c7.992,0,15.893,1.809,23.695,5.424   c-3.616-7.804-5.424-15.706-5.424-23.699c0-15.227,5.327-28.171,15.987-38.828c10.66-10.657,23.604-15.987,38.831-15.987   c15.227,0,28.171,5.327,38.828,15.987c10.657,10.66,15.987,23.601,15.987,38.828C237.539,137.852,232.209,150.797,221.556,161.458z   " fill="#ff8345"/>
</g>
</svg>
<svg id="uk_sym" viewBox="0 0 490 490" style="enable-background:new 0 0 490 490;" >
<g>
	<polygon points="236.99,11.41 0,246.348 236.99,478.678 236.99,350.609 129.864,245 236.99,139.391  " fill="#0064fb"/>
<polygon points="253.01,478.59 490,243.651 253.01,11.322 253.01,139.391 360.136,245 253.01,350.609  " fill="#0064fb"/>
</g>
</svg>
<svg id="link_sym" viewBox="0 0 1000 900" style="enable-background:new 0 0 1000 900;" >
<g>
<path fill="black" d="M660.224 422.656c6.976 16.192-0.512 35.008-16.768 42.048-16.128 6.976-34.944-0.448-41.984-16.768-8.448-19.776-20.736-37.696-36.224-53.248-64.64-64.64-177.344-64.64-241.92 0l-145.216 145.28c-66.688 66.688-66.688 175.232 0 241.984 66.688 66.688 175.104 66.752 241.92 0l92.8-92.864c12.48-12.48 32.768-12.48 45.248 0s12.48 32.768 0 45.248l-92.8 92.864c-91.648 91.648-240.832 91.52-332.416 0-91.712-91.648-91.712-240.832 0-332.48l145.216-145.28c44.352-44.416 103.424-68.864 166.272-68.864s121.792 24.448 166.208 68.864c21.248 21.312 38.016 45.952 49.664 73.216zM891.136 401.344l-145.216 145.216c-88.768 88.832-243.712 88.832-332.416 0-21.312-21.312-38.080-45.952-49.728-73.216-7.040-16.256 0.448-35.072 16.704-42.048 16.064-6.784 35.008 0.512 41.984 16.768 8.512 19.776 20.8 37.696 36.288 53.248 64.64 64.64 177.344 64.64 241.92 0l145.216-145.216c66.688-66.688 66.688-175.232 0-241.984-66.752-66.624-175.168-66.688-241.92 0l-92.8 92.864c-12.48 12.48-32.768 12.48-45.248 0s-12.48-32.768 0-45.248l92.8-92.864c45.824-45.824 105.984-68.736 166.208-68.736s120.448 22.912 166.272 68.736c91.584 91.648 91.584 240.768-0.064 332.48z" />
</g>
</svg>
<clipPath clipPathUnits="userSpaceOnUse" id="clipPath1_0_">
<rect x="0" y="0" width="278" height="157" />
</clipPath>
<clipPath clipPathUnits="userSpaceOnUse" id="clipPath5_0_">
<rect x="0" y="0" width="298" height="210" />
</clipPath>
<clipPath clipPathUnits="userSpaceOnUse" id="clipPath8_0_">
<rect x="0" y="0" width="230" height="121" />
</clipPath>
<clipPath clipPathUnits="userSpaceOnUse" id="clipPath6_0_">
<rect x="0" y="0" width="229" height="152" />
</clipPath>
<clipPath clipPathUnits="userSpaceOnUse" id="clipPath10_0_">
<rect x="0" y="0" width="385" height="197" />
</clipPath>
<clipPath clipPathUnits="userSpaceOnUse" id="clipPath4_0_">
<rect x="0" y="0" width="244" height="154" />
</clipPath>
<clipPath clipPathUnits="userSpaceOnUse" id="clipPath3_0_">
<rect x="0" y="0" width="222" height="99" />
</clipPath>
<clipPath clipPathUnits="userSpaceOnUse" id="clipPath9_0_">
<rect x="0" y="0" width="321" height="146" />
</clipPath>
<clipPath clipPathUnits="userSpaceOnUse" id="clipPath7_0_">
<rect x="0" y="0" width="254" height="235" />
</clipPath>
<clipPath clipPathUnits="userSpaceOnUse" id="clipPath2_0_">
<rect x="0" y="0" width="380" height="186" />
</clipPath>
</defs>
<g stroke-linecap="butt" >
<path stroke="rgb(0,0,0)" fill="none" stroke-opacity="1.0"  stroke-width="1" d="M472 235 L472 246" />
<polygon stroke="rgb(0,0,0)" stroke-dasharray="none" points="472 235 475 241 469 241" fill="rgb(0,0,0)" stroke-width="1" stroke-opacity="1.0"  />
<path stroke-dasharray="none" d="M466.0 246.0 L472.0 234.0 L478.0 246.0 M466.0 233.4000005722046 L478.0 233.4000005722046" fill="white" stroke-width="1" stroke-opacity="1.0" stroke="rgb(0,0,0)" />
</g>
<g stroke-linecap="butt" >
<path stroke="rgb(0,0,0)" fill="none" stroke-opacity="1.0"  stroke-width="1" d="M765 168 L765 232" />
<polygon stroke="rgb(0,0,0)" stroke-dasharray="none" points="765 168 768 174 762 174" fill="rgb(0,0,0)" stroke-width="1" stroke-opacity="1.0"  />
<path stroke-dasharray="none" d="M759.0 232.0 L765.0 220.0 L771.0 232.0 M759.0 219.4000005722046 L771.0 219.4000005722046" fill="white" stroke-width="1" stroke-opacity="1.0" stroke="rgb(0,0,0)" />
</g>
<g stroke-linecap="butt" >
<path stroke="rgb(0,0,0)" fill="none" stroke-opacity="1.0"  stroke-width="1" d="M634 427 L589 427" />
<polygon stroke="rgb(0,0,0)" stroke-dasharray="none" points="634 427 628 430 628 424" fill="rgb(0,0,0)" stroke-width="1" stroke-opacity="1.0"  />
<path stroke-dasharray="none" d="M589.0 421.0 L601.0 427.0 L589.0 433.0 M601.5999994277954 421.0 L601.5999994277954 433.0" fill="white" stroke-width="1" stroke-opacity="1.0" stroke="rgb(0,0,0)" />
</g>
<g stroke-linecap="butt" >
<path stroke="rgb(0,0,0)" fill="none" stroke-opacity="1.0"  stroke-width="1" d="M872 309 L919 309" />
<polygon stroke="rgb(0,0,0)" stroke-dasharray="none" points="872 309 878 306 878 312" fill="rgb(0,0,0)" stroke-width="1" stroke-opacity="1.0"  />
<path stroke-dasharray="none" d="M913.0 315.0 L913.0 303.0 M907.6000003814697 315.0 L907.6000003814697 303.0" fill="white" stroke-width="1" stroke-opacity="1.0" stroke="rgb(0,0,0)" />
</g>
<g stroke-linecap="butt" >
<path stroke="rgb(0,0,0)" fill="none" stroke-opacity="1.0"  stroke-width="1" d="M753 386 L753 422" />
<polygon stroke="rgb(0,0,0)" stroke-dasharray="none" points="753 386 756 392 750 392" fill="rgb(0,0,0)" stroke-width="1" stroke-opacity="1.0"  />
<path stroke-dasharray="none" d="M747.0 422.0 L753.0 410.0 L759.0 422.0 M747.0 409.4000005722046 L759.0 409.4000005722046" fill="white" stroke-width="1" stroke-opacity="1.0" stroke="rgb(0,0,0)" />
</g>
<g stroke-linecap="butt" >
<path stroke="rgb(0,0,0)" fill="none" stroke-opacity="1.0"  stroke-width="1" d="M384 432 L384 491" />
<polygon stroke="rgb(0,0,0)" stroke-dasharray="none" points="384 432 387 438 381 438" fill="rgb(0,0,0)" stroke-width="1" stroke-opacity="1.0"  />
<path stroke-dasharray="none" d="M378.0 491.0 L384.0 479.0 L390.0 491.0 M378.0 478.4000005722046 L390.0 478.4000005722046" fill="white" stroke-width="1" stroke-opacity="1.0" stroke="rgb(0,0,0)" />
</g>
<g stroke-linecap="butt" >
<path stroke="rgb(0,0,0)" fill="none" stroke-opacity="1.0"  stroke-width="1" d="M658 118 L609 118" />
<polygon stroke="rgb(0,0,0)" stroke-dasharray="none" points="658 118 652 121 652 115" fill="rgb(0,0,0)" stroke-width="1" stroke-opacity="1.0"  />
<path stroke-dasharray="none" d="M609.0 112.0 L621.0 118.0 L609.0 124.0 M621.5999994277954 112.0 L621.5999994277954 124.0" fill="white" stroke-width="1" stroke-opacity="1.0" stroke="rgb(0,0,0)" />
</g>
<g stroke-linecap="butt" >
<path stroke="rgb(0,0,0)" fill="none" stroke-opacity="1.0"  stroke-width="1" d="M932 513 L951 513" />
<polygon stroke="rgb(0,0,0)" stroke-dasharray="none" points="932 513 938 510 938 516" fill="rgb(0,0,0)" stroke-width="1" stroke-opacity="1.0"  />
<path stroke-dasharray="none" d="M951.0 519.0 L939.0 513.0 L951.0 507.0 M938.4000005722046 519.0 L938.4000005722046 507.0" fill="white" stroke-width="1" stroke-opacity="1.0" stroke="rgb(0,0,0)" />
</g>
<g stroke-linecap="butt" >
<path stroke="rgb(0,0,0)" fill="none" stroke-opacity="1.0"  stroke-width="1" d="M708 690 L708 632" />
<polygon stroke="rgb(0,0,0)" stroke-dasharray="none" points="708 690 705 684 711 684" fill="rgb(0,0,0)" stroke-width="1" stroke-opacity="1.0"  />
<path stroke-dasharray="none" d="M714.0 632.0 L708.0 644.0 L702.0 632.0 M714.0 644.5999994277954 L702.0 644.5999994277954" fill="white" stroke-width="1" stroke-opacity="1.0" stroke="rgb(0,0,0)" />
</g>
<g  fill="rgb(255,255,180)" stroke="rgb(0,0,255)" fill-opacity="1.0" stroke-opacity="1.0" clip-path="url(#clipPath1_0_)" transform="translate(919,229)" >
<rect x="0" y="0" width="277" height="156" />
<text id="444A4C59-DCA854551E7B" x="125" y="14" fill="rgb(0,0,255)" font-weight="bold"  fill-opacity="1.0" font-size="10" stroke="none">
Actas
</text>
<line x1="0" y1="18" x2="276" y2="18" fill="none" stroke="rgb(0,0,255)"/>
<text x="16" y="32" fill="rgb(255,0,0)" fill-opacity="1.0" font-size="10" stroke="none">
*
</text>
<text x="2" y="32" fill="rgb(0,0,255)" fill-opacity="1.0" font-size="10" stroke="none">
P
</text>
<text x="26" y="32" fill="rgb(0,0,0)" fill-opacity="1.0" font-size="10" stroke="none">
id_acta
</text>
<text x="129" y="32" fill="rgb(0,128,0)" fill-opacity="1.0" font-size="10" stroke="none">
NUMBER
</text>
<text x="16" y="46" fill="rgb(255,0,0)" fill-opacity="1.0" font-size="10" stroke="none">
*
</text>
<text x="26" y="46" fill="rgb(0,0,0)" fill-opacity="1.0" font-size="10" stroke="none">
id_curso
</text>
<text x="129" y="46" fill="rgb(0,128,0)" fill-opacity="1.0" font-size="10" stroke="none">
NUMBER
</text>
<text x="16" y="60" fill="rgb(255,0,0)" fill-opacity="1.0" font-size="10" stroke="none">
*
</text>
<text x="26" y="60" fill="rgb(0,0,0)" fill-opacity="1.0" font-size="10" stroke="none">
ciclo
</text>
<text x="129" y="60" fill="rgb(0,128,0)" fill-opacity="1.0" font-size="10" stroke="none">
VARCHAR2 (4000)
</text>
<text x="16" y="74" fill="rgb(255,0,0)" fill-opacity="1.0" font-size="10" stroke="none">
*
</text>
<text x="26" y="74" fill="rgb(0,0,0)" fill-opacity="1.0" font-size="10" stroke="none">
seccion
</text>
<text x="129" y="74" fill="rgb(0,128,0)" fill-opacity="1.0" font-size="10" stroke="none">
CHAR
</text>
<text x="16" y="88" fill="rgb(255,0,0)" fill-opacity="1.0" font-size="10" stroke="none">
*
</text>
<text x="26" y="88" fill="rgb(0,0,0)" fill-opacity="1.0" font-size="10" stroke="none">
fecha_generado
</text>
<text x="129" y="88" fill="rgb(0,128,0)" fill-opacity="1.0" font-size="10" stroke="none">
DATE
</text>
<text x="16" y="102" fill="rgb(255,0,0)" fill-opacity="1.0" font-size="10" stroke="none">
*
</text>
<text x="2" y="102" fill="rgb(0,0,0)" fill-opacity="1.0" font-size="10" stroke="none">
F
</text>
<text x="26" y="102" fill="rgb(0,0,0)" fill-opacity="1.0" font-size="10" stroke="none">
Cursov2_id_curso
</text>
<text x="129" y="102" fill="rgb(0,128,0)" fill-opacity="1.0" font-size="10" stroke="none">
NUMBER
</text>
<line x1="0" y1="108" x2="276" y2="108" fill="none" stroke="rgb(0,0,255)"/>
<use xlink:href="#pk_sym" x="4" y="115" width="8" height="8" fill-opacity="1.0"/>
<text x="16" y="122" fill="rgb(0,0,0)" fill-opacity="1.0" font-size="10" stroke="none">
Actasv1_PK (id_acta)
</text>
<line x1="0" y1="128" x2="276" y2="128" fill="none" stroke="rgb(0,0,255)"/>
<use xlink:href="#fk_sym" x="4" y="135" width="8" height="8" fill-opacity="1.0"/><a xlink:href="#7848EBF6-15B9A4E21E58" >
<text x="16" y="142" fill="rgb(0,0,0)" fill-opacity="1.0" font-size="10" stroke="none">
Actasv2_Cursov2_FK (Cursov2_id_curso)
</text></a>
<line x1="0" y1="148" x2="276" y2="148" fill="none" stroke="rgb(0,0,255)"/>
<text x="2" y="162" fill="rgb(0,0,0)" fill-opacity="1.0" font-size="10" stroke="none">
U
</text>
<text x="16" y="162" fill="rgb(0,0,0)" fill-opacity="1.0" font-size="10" stroke="none">
Actasv1__IDX (Cursov2_id_curso)
</text>
<polygon points="270,153 266,145 274,145" stroke-dasharray="none" stroke="rgb(0,0,255)" fill="rgb(0,0,255)" stroke-width="1" />
</g>
<g  fill="rgb(255,255,180)" stroke="rgb(0,0,255)" fill-opacity="1.0" stroke-opacity="1.0" clip-path="url(#clipPath5_0_)" transform="translate(634,422)" >
<rect x="0" y="0" width="297" height="209" />
<text id="49B1F0C4-1FCF94C52E8D" x="110" y="14" fill="rgb(0,0,255)" font-weight="bold"  fill-opacity="1.0" font-size="10" stroke="none">
CursoHabilitado
</text>
<line x1="0" y1="18" x2="296" y2="18" fill="none" stroke="rgb(0,0,255)"/>
<text x="16" y="32" fill="rgb(255,0,0)" fill-opacity="1.0" font-size="10" stroke="none">
*
</text>
<text x="2" y="32" fill="rgb(0,0,255)" fill-opacity="1.0" font-size="10" stroke="none">
P
</text>
<text x="26" y="32" fill="rgb(0,0,0)" fill-opacity="1.0" font-size="10" stroke="none">
id
</text>
<text x="152" y="32" fill="rgb(0,128,0)" fill-opacity="1.0" font-size="10" stroke="none">
NUMBER
</text>
<text x="16" y="46" fill="rgb(255,0,0)" fill-opacity="1.0" font-size="10" stroke="none">
*
</text>
<text x="26" y="46" fill="rgb(0,0,0)" fill-opacity="1.0" font-size="10" stroke="none">
id_curso
</text>
<text x="152" y="46" fill="rgb(0,128,0)" fill-opacity="1.0" font-size="10" stroke="none">
NUMBER
</text>
<text x="16" y="60" fill="rgb(255,0,0)" fill-opacity="1.0" font-size="10" stroke="none">
*
</text>
<text x="26" y="60" fill="rgb(0,0,0)" fill-opacity="1.0" font-size="10" stroke="none">
ciclo
</text>
<text x="152" y="60" fill="rgb(0,128,0)" fill-opacity="1.0" font-size="10" stroke="none">
VARCHAR2 (4000)
</text>
<text x="16" y="74" fill="rgb(255,0,0)" fill-opacity="1.0" font-size="10" stroke="none">
*
</text>
<text x="26" y="74" fill="rgb(0,0,0)" fill-opacity="1.0" font-size="10" stroke="none">
id_docente
</text>
<text x="152" y="74" fill="rgb(0,128,0)" fill-opacity="1.0" font-size="10" stroke="none">
NUMBER
</text>
<text x="16" y="88" fill="rgb(255,0,0)" fill-opacity="1.0" font-size="10" stroke="none">
*
</text>
<text x="26" y="88" fill="rgb(0,0,0)" fill-opacity="1.0" font-size="10" stroke="none">
cupo_maximo
</text>
<text x="152" y="88" fill="rgb(0,128,0)" fill-opacity="1.0" font-size="10" stroke="none">
NUMBER
</text>
<text x="16" y="102" fill="rgb(255,0,0)" fill-opacity="1.0" font-size="10" stroke="none">
*
</text>
<text x="26" y="102" fill="rgb(0,0,0)" fill-opacity="1.0" font-size="10" stroke="none">
seccion
</text>
<text x="152" y="102" fill="rgb(0,128,0)" fill-opacity="1.0" font-size="10" stroke="none">
CHAR
</text>
<text x="16" y="116" fill="rgb(255,0,0)" fill-opacity="1.0" font-size="10" stroke="none">
*
</text>
<text x="26" y="116" fill="rgb(0,0,0)" fill-opacity="1.0" font-size="10" stroke="none">
year
</text>
<text x="152" y="116" fill="rgb(0,128,0)" fill-opacity="1.0" font-size="10" stroke="none">
NUMBER
</text>
<text x="16" y="130" fill="rgb(255,0,0)" fill-opacity="1.0" font-size="10" stroke="none">
*
</text>
<text x="26" y="130" fill="rgb(0,0,0)" fill-opacity="1.0" font-size="10" stroke="none">
estudiantes_asignados
</text>
<text x="152" y="130" fill="rgb(0,128,0)" fill-opacity="1.0" font-size="10" stroke="none">
NUMBER
</text>
<text x="16" y="144" fill="rgb(255,0,0)" fill-opacity="1.0" font-size="10" stroke="none">
*
</text>
<text x="2" y="144" fill="rgb(0,0,0)" fill-opacity="1.0" font-size="10" stroke="none">
F
</text>
<text x="26" y="144" fill="rgb(0,0,0)" fill-opacity="1.0" font-size="10" stroke="none">
Cursov2_id_curso
</text>
<text x="152" y="144" fill="rgb(0,128,0)" fill-opacity="1.0" font-size="10" stroke="none">
NUMBER
</text>
<text x="16" y="158" fill="rgb(255,0,0)" fill-opacity="1.0" font-size="10" stroke="none">
*
</text>
<text x="2" y="158" fill="rgb(0,0,0)" fill-opacity="1.0" font-size="10" stroke="none">
F
</text>
<text x="26" y="158" fill="rgb(0,0,0)" fill-opacity="1.0" font-size="10" stroke="none">
Docentev2_id_siif
</text>
<text x="152" y="158" fill="rgb(0,128,0)" fill-opacity="1.0" font-size="10" stroke="none">
NUMBER
</text>
<line x1="0" y1="164" x2="296" y2="164" fill="none" stroke="rgb(0,0,255)"/>
<use xlink:href="#pk_sym" x="4" y="171" width="8" height="8" fill-opacity="1.0"/>
<text x="16" y="178" fill="rgb(0,0,0)" fill-opacity="1.0" font-size="10" stroke="none">
CursoHabilitadov1_PK (id)
</text>
<line x1="0" y1="184" x2="296" y2="184" fill="none" stroke="rgb(0,0,255)"/>
<use xlink:href="#fk_sym" x="4" y="191" width="8" height="8" fill-opacity="1.0"/><a xlink:href="#5E48C7EB-A706BEC4D2F9" >
<text x="16" y="198" fill="rgb(0,0,0)" fill-opacity="1.0" font-size="10" stroke="none">
CursoHabilitadov2_Docentev2_FK (Docentev2_id_siif)
</text></a>
<use xlink:href="#fk_sym" x="4" y="205" width="8" height="8" fill-opacity="1.0"/><a xlink:href="#7848EBF6-15B9A4E21E58" >
<text x="16" y="212" fill="rgb(0,0,0)" fill-opacity="1.0" font-size="10" stroke="none">
CursoHabilitadov2_Cursov2_FK (Cursov2_id_curso)
</text></a>
<polygon points="290,206 286,198 294,198" stroke-dasharray="none" stroke="rgb(0,0,255)" fill="rgb(0,0,255)" stroke-width="1" />
</g>
<g  fill="rgb(255,255,180)" stroke="rgb(0,0,255)" fill-opacity="1.0" stroke-opacity="1.0" clip-path="url(#clipPath8_0_)" transform="translate(24,64)" >
<rect x="0" y="0" width="229" height="120" />
<text id="4F152582-897589C14CC3" x="64" y="14" fill="rgb(0,0,255)" font-weight="bold"  fill-opacity="1.0" font-size="10" stroke="none">
HistorialTransaccion
</text>
<line x1="0" y1="18" x2="228" y2="18" fill="none" stroke="rgb(0,0,255)"/>
<text x="16" y="32" fill="rgb(255,0,0)" fill-opacity="1.0" font-size="10" stroke="none">
*
</text>
<text x="2" y="32" fill="rgb(0,0,255)" fill-opacity="1.0" font-size="10" stroke="none">
P
</text>
<text x="26" y="32" fill="rgb(0,0,0)" fill-opacity="1.0" font-size="10" stroke="none">
id
</text>
<text x="112" y="32" fill="rgb(0,128,0)" fill-opacity="1.0" font-size="10" stroke="none">
NUMBER
</text>
<text x="16" y="46" fill="rgb(255,0,0)" fill-opacity="1.0" font-size="10" stroke="none">
*
</text>
<text x="26" y="46" fill="rgb(0,0,0)" fill-opacity="1.0" font-size="10" stroke="none">
fecha
</text>
<text x="112" y="46" fill="rgb(0,128,0)" fill-opacity="1.0" font-size="10" stroke="none">
DATE
</text>
<text x="16" y="60" fill="rgb(255,0,0)" fill-opacity="1.0" font-size="10" stroke="none">
*
</text>
<text x="26" y="60" fill="rgb(0,0,0)" fill-opacity="1.0" font-size="10" stroke="none">
descripcion
</text>
<text x="112" y="60" fill="rgb(0,128,0)" fill-opacity="1.0" font-size="10" stroke="none">
VARCHAR2 (4000)
</text>
<text x="16" y="74" fill="rgb(255,0,0)" fill-opacity="1.0" font-size="10" stroke="none">
*
</text>
<text x="26" y="74" fill="rgb(0,0,0)" fill-opacity="1.0" font-size="10" stroke="none">
tipo
</text>
<text x="112" y="74" fill="rgb(0,128,0)" fill-opacity="1.0" font-size="10" stroke="none">
VARCHAR2 (4000)
</text>
<text x="16" y="88" fill="rgb(255,0,0)" fill-opacity="1.0" font-size="10" stroke="none">
*
</text>
<text x="26" y="88" fill="rgb(0,0,0)" fill-opacity="1.0" font-size="10" stroke="none">
nombre_tabla
</text>
<text x="112" y="88" fill="rgb(0,128,0)" fill-opacity="1.0" font-size="10" stroke="none">
VARCHAR2 (4000)
</text>
<line x1="0" y1="94" x2="228" y2="94" fill="none" stroke="rgb(0,0,255)"/>
<use xlink:href="#pk_sym" x="4" y="101" width="8" height="8" fill-opacity="1.0"/>
<text x="16" y="108" fill="rgb(0,0,0)" fill-opacity="1.0" font-size="10" stroke="none">
HistorialTransaccion_PK (id)
</text>
</g>
<g  fill="rgb(255,255,180)" stroke="rgb(0,0,255)" fill-opacity="1.0" stroke-opacity="1.0" clip-path="url(#clipPath6_0_)" transform="translate(554,690)" >
<rect x="0" y="0" width="228" height="151" />
<text id="5E48C7EB-A706BEC4D2F9" x="94" y="14" fill="rgb(0,0,255)" font-weight="bold"  fill-opacity="1.0" font-size="10" stroke="none">
Docente
</text>
<line x1="0" y1="18" x2="227" y2="18" fill="none" stroke="rgb(0,0,255)"/>
<text x="16" y="32" fill="rgb(255,0,0)" fill-opacity="1.0" font-size="10" stroke="none">
*
</text>
<text x="2" y="32" fill="rgb(0,0,255)" fill-opacity="1.0" font-size="10" stroke="none">
P
</text>
<text x="26" y="32" fill="rgb(0,0,0)" fill-opacity="1.0" font-size="10" stroke="none">
id_siif
</text>
<text x="133" y="32" fill="rgb(0,128,0)" fill-opacity="1.0" font-size="10" stroke="none">
NUMBER
</text>
<text x="16" y="46" fill="rgb(255,0,0)" fill-opacity="1.0" font-size="10" stroke="none">
*
</text>
<text x="26" y="46" fill="rgb(0,0,0)" fill-opacity="1.0" font-size="10" stroke="none">
nombres
</text>
<text x="133" y="46" fill="rgb(0,128,0)" fill-opacity="1.0" font-size="10" stroke="none">
VARCHAR2 (4000)
</text>
<text x="16" y="60" fill="rgb(255,0,0)" fill-opacity="1.0" font-size="10" stroke="none">
*
</text>
<text x="26" y="60" fill="rgb(0,0,0)" fill-opacity="1.0" font-size="10" stroke="none">
apellidos
</text>
<text x="133" y="60" fill="rgb(0,128,0)" fill-opacity="1.0" font-size="10" stroke="none">
VARCHAR2 (4000)
</text>
<text x="16" y="74" fill="rgb(255,0,0)" fill-opacity="1.0" font-size="10" stroke="none">
*
</text>
<text x="26" y="74" fill="rgb(0,0,0)" fill-opacity="1.0" font-size="10" stroke="none">
fecha_nacimiento
</text>
<text x="133" y="74" fill="rgb(0,128,0)" fill-opacity="1.0" font-size="10" stroke="none">
DATE
</text>
<text x="16" y="88" fill="rgb(255,0,0)" fill-opacity="1.0" font-size="10" stroke="none">
*
</text>
<text x="26" y="88" fill="rgb(0,0,0)" fill-opacity="1.0" font-size="10" stroke="none">
correo
</text>
<text x="133" y="88" fill="rgb(0,128,0)" fill-opacity="1.0" font-size="10" stroke="none">
VARCHAR2 (4000)
</text>
<text x="16" y="102" fill="rgb(255,0,0)" fill-opacity="1.0" font-size="10" stroke="none">
*
</text>
<text x="26" y="102" fill="rgb(0,0,0)" fill-opacity="1.0" font-size="10" stroke="none">
telefono
</text>
<text x="133" y="102" fill="rgb(0,128,0)" fill-opacity="1.0" font-size="10" stroke="none">
NUMBER
</text>
<text x="16" y="116" fill="rgb(255,0,0)" fill-opacity="1.0" font-size="10" stroke="none">
*
</text>
<text x="26" y="116" fill="rgb(0,0,0)" fill-opacity="1.0" font-size="10" stroke="none">
direccion
</text>
<text x="133" y="116" fill="rgb(0,128,0)" fill-opacity="1.0" font-size="10" stroke="none">
VARCHAR2 (4000)
</text>
<text x="16" y="130" fill="rgb(255,0,0)" fill-opacity="1.0" font-size="10" stroke="none">
*
</text>
<text x="26" y="130" fill="rgb(0,0,0)" fill-opacity="1.0" font-size="10" stroke="none">
dpi
</text>
<text x="133" y="130" fill="rgb(0,128,0)" fill-opacity="1.0" font-size="10" stroke="none">
INTEGER
</text>
<line x1="0" y1="136" x2="227" y2="136" fill="none" stroke="rgb(0,0,255)"/>
<use xlink:href="#pk_sym" x="4" y="143" width="8" height="8" fill-opacity="1.0"/>
<text x="16" y="150" fill="rgb(0,0,0)" fill-opacity="1.0" font-size="10" stroke="none">
Docentev1_PK (id_siif)
</text>
</g>
<g  fill="rgb(255,255,180)" stroke="rgb(0,0,255)" fill-opacity="1.0" stroke-opacity="1.0" clip-path="url(#clipPath10_0_)" transform="translate(175,491)" >
<rect x="0" y="0" width="384" height="196" />
<text id="69881B06-2BF2C5B62B81" x="178" y="14" fill="rgb(0,0,255)" font-weight="bold"  fill-opacity="1.0" font-size="10" stroke="none">
Notas
</text>
<line x1="0" y1="18" x2="383" y2="18" fill="none" stroke="rgb(0,0,255)"/>
<text x="16" y="32" fill="rgb(255,0,0)" fill-opacity="1.0" font-size="10" stroke="none">
*
</text>
<text x="2" y="32" fill="rgb(0,0,255)" fill-opacity="1.0" font-size="10" stroke="none">
P
</text>
<text x="26" y="32" fill="rgb(0,0,0)" fill-opacity="1.0" font-size="10" stroke="none">
id
</text>
<text x="248" y="32" fill="rgb(0,128,0)" fill-opacity="1.0" font-size="10" stroke="none">
NUMBER
</text>
<text x="16" y="46" fill="rgb(255,0,0)" fill-opacity="1.0" font-size="10" stroke="none">
*
</text>
<text x="26" y="46" fill="rgb(0,0,0)" fill-opacity="1.0" font-size="10" stroke="none">
carnet
</text>
<text x="248" y="46" fill="rgb(0,128,0)" fill-opacity="1.0" font-size="10" stroke="none">
INTEGER
</text>
<text x="16" y="60" fill="rgb(255,0,0)" fill-opacity="1.0" font-size="10" stroke="none">
*
</text>
<text x="26" y="60" fill="rgb(0,0,0)" fill-opacity="1.0" font-size="10" stroke="none">
id_curso
</text>
<text x="248" y="60" fill="rgb(0,128,0)" fill-opacity="1.0" font-size="10" stroke="none">
NUMBER
</text>
<text x="16" y="74" fill="rgb(255,0,0)" fill-opacity="1.0" font-size="10" stroke="none">
*
</text>
<text x="26" y="74" fill="rgb(0,0,0)" fill-opacity="1.0" font-size="10" stroke="none">
ciclo
</text>
<text x="248" y="74" fill="rgb(0,128,0)" fill-opacity="1.0" font-size="10" stroke="none">
VARCHAR2 (4000)
</text>
<text x="16" y="88" fill="rgb(255,0,0)" fill-opacity="1.0" font-size="10" stroke="none">
*
</text>
<text x="26" y="88" fill="rgb(0,0,0)" fill-opacity="1.0" font-size="10" stroke="none">
seccion
</text>
<text x="248" y="88" fill="rgb(0,128,0)" fill-opacity="1.0" font-size="10" stroke="none">
CHAR
</text>
<text x="16" y="102" fill="rgb(255,0,0)" fill-opacity="1.0" font-size="10" stroke="none">
*
</text>
<text x="26" y="102" fill="rgb(0,0,0)" fill-opacity="1.0" font-size="10" stroke="none">
nota
</text>
<text x="248" y="102" fill="rgb(0,128,0)" fill-opacity="1.0" font-size="10" stroke="none">
NUMBER
</text>
<text x="16" y="116" fill="rgb(255,0,0)" fill-opacity="1.0" font-size="10" stroke="none">
*
</text>
<text x="2" y="116" fill="rgb(0,0,0)" fill-opacity="1.0" font-size="10" stroke="none">
F
</text>
<text x="26" y="116" fill="rgb(0,0,0)" fill-opacity="1.0" font-size="10" stroke="none">
AsignacionCursov1_AsignacionCursov1_ID
</text>
<text x="248" y="116" fill="rgb(0,128,0)" fill-opacity="1.0" font-size="10" stroke="none">
NUMBER
</text>
<line x1="0" y1="122" x2="383" y2="122" fill="none" stroke="rgb(0,0,255)"/>
<use xlink:href="#pk_sym" x="4" y="129" width="8" height="8" fill-opacity="1.0"/>
<text x="16" y="136" fill="rgb(0,0,0)" fill-opacity="1.0" font-size="10" stroke="none">
Notasv1_PK (id)
</text>
<line x1="0" y1="142" x2="383" y2="142" fill="none" stroke="rgb(0,0,255)"/>
<use xlink:href="#fk_sym" x="4" y="149" width="8" height="8" fill-opacity="1.0"/><a xlink:href="#B883283A-D29DFF0CEC3F" >
<text x="16" y="156" fill="rgb(0,0,0)" fill-opacity="1.0" font-size="10" stroke="none">
Notasv2_AsignacionCursov2_FK (AsignacionCursov1_AsignacionCursov1_ID)
</text></a>
</g>
<g  fill="rgb(255,255,180)" stroke="rgb(0,0,255)" fill-opacity="1.0" stroke-opacity="1.0" clip-path="url(#clipPath4_0_)" transform="translate(628,232)" >
<rect x="0" y="0" width="243" height="153" />
<text id="7848EBF6-15B9A4E21E58" x="107" y="14" fill="rgb(0,0,255)" font-weight="bold"  fill-opacity="1.0" font-size="10" stroke="none">
Curso
</text>
<line x1="0" y1="18" x2="242" y2="18" fill="none" stroke="rgb(0,0,255)"/>
<text x="16" y="32" fill="rgb(255,0,0)" fill-opacity="1.0" font-size="10" stroke="none">
*
</text>
<text x="2" y="32" fill="rgb(0,0,255)" fill-opacity="1.0" font-size="10" stroke="none">
P
</text>
<text x="26" y="32" fill="rgb(0,0,0)" fill-opacity="1.0" font-size="10" stroke="none">
id_curso
</text>
<text x="145" y="32" fill="rgb(0,128,0)" fill-opacity="1.0" font-size="10" stroke="none">
NUMBER
</text>
<text x="16" y="46" fill="rgb(255,0,0)" fill-opacity="1.0" font-size="10" stroke="none">
*
</text>
<text x="26" y="46" fill="rgb(0,0,0)" fill-opacity="1.0" font-size="10" stroke="none">
nombre
</text>
<text x="145" y="46" fill="rgb(0,128,0)" fill-opacity="1.0" font-size="10" stroke="none">
VARCHAR2 (4000)
</text>
<text x="16" y="60" fill="rgb(255,0,0)" fill-opacity="1.0" font-size="10" stroke="none">
*
</text>
<text x="26" y="60" fill="rgb(0,0,0)" fill-opacity="1.0" font-size="10" stroke="none">
creditos_necesarios
</text>
<text x="145" y="60" fill="rgb(0,128,0)" fill-opacity="1.0" font-size="10" stroke="none">
NUMBER
</text>
<text x="16" y="74" fill="rgb(255,0,0)" fill-opacity="1.0" font-size="10" stroke="none">
*
</text>
<text x="26" y="74" fill="rgb(0,0,0)" fill-opacity="1.0" font-size="10" stroke="none">
creditos_otorgados
</text>
<text x="145" y="74" fill="rgb(0,128,0)" fill-opacity="1.0" font-size="10" stroke="none">
NUMBER
</text>
<text x="16" y="88" fill="rgb(255,0,0)" fill-opacity="1.0" font-size="10" stroke="none">
*
</text>
<text x="26" y="88" fill="rgb(0,0,0)" fill-opacity="1.0" font-size="10" stroke="none">
id_carrera
</text>
<text x="145" y="88" fill="rgb(0,128,0)" fill-opacity="1.0" font-size="10" stroke="none">
NUMBER
</text>
<text x="16" y="102" fill="rgb(255,0,0)" fill-opacity="1.0" font-size="10" stroke="none">
*
</text>
<text x="26" y="102" fill="rgb(0,0,0)" fill-opacity="1.0" font-size="10" stroke="none">
opcional
</text>
<text x="145" y="102" fill="rgb(0,128,0)" fill-opacity="1.0" font-size="10" stroke="none">
CHAR (1)
</text>
<text x="16" y="116" fill="rgb(255,0,0)" fill-opacity="1.0" font-size="10" stroke="none">
*
</text>
<text x="2" y="116" fill="rgb(0,0,0)" fill-opacity="1.0" font-size="10" stroke="none">
F
</text>
<text x="26" y="116" fill="rgb(0,0,0)" fill-opacity="1.0" font-size="10" stroke="none">
Carrerav2_id_carrera
</text>
<text x="145" y="116" fill="rgb(0,128,0)" fill-opacity="1.0" font-size="10" stroke="none">
NUMBER
</text>
<line x1="0" y1="122" x2="242" y2="122" fill="none" stroke="rgb(0,0,255)"/>
<use xlink:href="#pk_sym" x="4" y="129" width="8" height="8" fill-opacity="1.0"/>
<text x="16" y="136" fill="rgb(0,0,0)" fill-opacity="1.0" font-size="10" stroke="none">
Cursov1_PK (id_curso)
</text>
<line x1="0" y1="142" x2="242" y2="142" fill="none" stroke="rgb(0,0,255)"/>
<use xlink:href="#fk_sym" x="4" y="149" width="8" height="8" fill-opacity="1.0"/><a xlink:href="#87983FD5-0FB0253B7DE8" >
<text x="16" y="156" fill="rgb(0,0,0)" fill-opacity="1.0" font-size="10" stroke="none">
Cursov2_Carrerav2_FK (Carrerav2_id_carrera)
</text></a>
<polygon points="236,150 232,142 240,142" stroke-dasharray="none" stroke="rgb(0,0,255)" fill="rgb(0,0,255)" stroke-width="1" />
</g>
<g  fill="rgb(255,255,180)" stroke="rgb(0,0,255)" fill-opacity="1.0" stroke-opacity="1.0" clip-path="url(#clipPath3_0_)" transform="translate(658,69)" >
<rect x="0" y="0" width="221" height="98" />
<text id="87983FD5-0FB0253B7DE8" x="92" y="14" fill="rgb(0,0,255)" font-weight="bold"  fill-opacity="1.0" font-size="10" stroke="none">
Carrera
</text>
<line x1="0" y1="18" x2="220" y2="18" fill="none" stroke="rgb(0,0,255)"/>
<text x="16" y="32" fill="rgb(255,0,0)" fill-opacity="1.0" font-size="10" stroke="none">
*
</text>
<text x="2" y="32" fill="rgb(0,0,255)" fill-opacity="1.0" font-size="10" stroke="none">
P
</text>
<text x="26" y="32" fill="rgb(0,0,0)" fill-opacity="1.0" font-size="10" stroke="none">
id_carrera
</text>
<text x="94" y="32" fill="rgb(0,128,0)" fill-opacity="1.0" font-size="10" stroke="none">
NUMBER
</text>
<text x="16" y="46" fill="rgb(255,0,0)" fill-opacity="1.0" font-size="10" stroke="none">
*
</text>
<text x="26" y="46" fill="rgb(0,0,0)" fill-opacity="1.0" font-size="10" stroke="none">
nombre
</text>
<text x="94" y="46" fill="rgb(0,128,0)" fill-opacity="1.0" font-size="10" stroke="none">
VARCHAR2 (4000)
</text>
<line x1="0" y1="52" x2="220" y2="52" fill="none" stroke="rgb(0,0,255)"/>
<use xlink:href="#pk_sym" x="4" y="59" width="8" height="8" fill-opacity="1.0"/>
<text x="16" y="66" fill="rgb(0,0,0)" fill-opacity="1.0" font-size="10" stroke="none">
Carrerav1_PK (id_carrera)
</text>
</g>
<g  fill="rgb(255,255,180)" stroke="rgb(0,0,255)" fill-opacity="1.0" stroke-opacity="1.0" clip-path="url(#clipPath9_0_)" transform="translate(951,440)" >
<rect x="0" y="0" width="320" height="145" />
<text id="992AD1C8-19959CDBFE14" x="128" y="14" fill="rgb(0,0,255)" font-weight="bold"  fill-opacity="1.0" font-size="10" stroke="none">
HorarioCurso
</text>
<line x1="0" y1="18" x2="319" y2="18" fill="none" stroke="rgb(0,0,255)"/>
<text x="16" y="32" fill="rgb(255,0,0)" fill-opacity="1.0" font-size="10" stroke="none">
*
</text>
<text x="26" y="32" fill="rgb(0,0,0)" fill-opacity="1.0" font-size="10" stroke="none">
id_curso_habilitado
</text>
<text x="147" y="32" fill="rgb(0,128,0)" fill-opacity="1.0" font-size="10" stroke="none">
NUMBER
</text>
<text x="16" y="46" fill="rgb(255,0,0)" fill-opacity="1.0" font-size="10" stroke="none">
*
</text>
<text x="26" y="46" fill="rgb(0,0,0)" fill-opacity="1.0" font-size="10" stroke="none">
dia
</text>
<text x="147" y="46" fill="rgb(0,128,0)" fill-opacity="1.0" font-size="10" stroke="none">
NUMBER
</text>
<text x="16" y="60" fill="rgb(255,0,0)" fill-opacity="1.0" font-size="10" stroke="none">
*
</text>
<text x="26" y="60" fill="rgb(0,0,0)" fill-opacity="1.0" font-size="10" stroke="none">
horario
</text>
<text x="147" y="60" fill="rgb(0,128,0)" fill-opacity="1.0" font-size="10" stroke="none">
VARCHAR2 (4000)
</text>
<text x="16" y="74" fill="rgb(255,0,0)" fill-opacity="1.0" font-size="10" stroke="none">
*
</text>
<text x="2" y="74" fill="rgb(0,0,255)" fill-opacity="1.0" font-size="10" stroke="none">
P
</text>
<text x="26" y="74" fill="rgb(0,0,0)" fill-opacity="1.0" font-size="10" stroke="none">
id_horario_curso
</text>
<text x="147" y="74" fill="rgb(0,128,0)" fill-opacity="1.0" font-size="10" stroke="none">
NUMBER
</text>
<text x="16" y="88" fill="rgb(255,0,0)" fill-opacity="1.0" font-size="10" stroke="none">
*
</text>
<text x="2" y="88" fill="rgb(0,0,0)" fill-opacity="1.0" font-size="10" stroke="none">
F
</text>
<text x="26" y="88" fill="rgb(0,0,0)" fill-opacity="1.0" font-size="10" stroke="none">
CursoHabilitadov2_id
</text>
<text x="147" y="88" fill="rgb(0,128,0)" fill-opacity="1.0" font-size="10" stroke="none">
NUMBER
</text>
<line x1="0" y1="94" x2="319" y2="94" fill="none" stroke="rgb(0,0,255)"/>
<use xlink:href="#pk_sym" x="4" y="101" width="8" height="8" fill-opacity="1.0"/>
<text x="16" y="108" fill="rgb(0,0,0)" fill-opacity="1.0" font-size="10" stroke="none">
HorarioCursov1_PK (id_horario_curso)
</text>
<line x1="0" y1="114" x2="319" y2="114" fill="none" stroke="rgb(0,0,255)"/>
<use xlink:href="#fk_sym" x="4" y="121" width="8" height="8" fill-opacity="1.0"/><a xlink:href="#49B1F0C4-1FCF94C52E8D" >
<text x="16" y="128" fill="rgb(0,0,0)" fill-opacity="1.0" font-size="10" stroke="none">
HorarioCursov2_CursoHabilitadov2_FK (CursoHabilitadov2_id)
</text></a>
</g>
<g  fill="rgb(255,255,180)" stroke="rgb(0,0,255)" fill-opacity="1.0" stroke-opacity="1.0" clip-path="url(#clipPath7_0_)" transform="translate(355,0)" >
<rect x="0" y="0" width="253" height="234" />
<text id="9B6362F6-0BA719CACF04" x="101" y="14" fill="rgb(0,0,255)" font-weight="bold"  fill-opacity="1.0" font-size="10" stroke="none">
Estudiante
</text>
<line x1="0" y1="18" x2="252" y2="18" fill="none" stroke="rgb(0,0,255)"/>
<text x="16" y="32" fill="rgb(255,0,0)" fill-opacity="1.0" font-size="10" stroke="none">
*
</text>
<text x="2" y="32" fill="rgb(0,0,255)" fill-opacity="1.0" font-size="10" stroke="none">
P
</text>
<text x="26" y="32" fill="rgb(0,0,0)" fill-opacity="1.0" font-size="10" stroke="none">
carnet
</text>
<text x="145" y="32" fill="rgb(0,128,0)" fill-opacity="1.0" font-size="10" stroke="none">
INTEGER
</text>
<text x="16" y="46" fill="rgb(255,0,0)" fill-opacity="1.0" font-size="10" stroke="none">
*
</text>
<text x="26" y="46" fill="rgb(0,0,0)" fill-opacity="1.0" font-size="10" stroke="none">
nombres
</text>
<text x="145" y="46" fill="rgb(0,128,0)" fill-opacity="1.0" font-size="10" stroke="none">
VARCHAR2 (4000)
</text>
<text x="16" y="60" fill="rgb(255,0,0)" fill-opacity="1.0" font-size="10" stroke="none">
*
</text>
<text x="26" y="60" fill="rgb(0,0,0)" fill-opacity="1.0" font-size="10" stroke="none">
apellidos
</text>
<text x="145" y="60" fill="rgb(0,128,0)" fill-opacity="1.0" font-size="10" stroke="none">
VARCHAR2 (4000)
</text>
<text x="16" y="74" fill="rgb(255,0,0)" fill-opacity="1.0" font-size="10" stroke="none">
*
</text>
<text x="26" y="74" fill="rgb(0,0,0)" fill-opacity="1.0" font-size="10" stroke="none">
fecha_nacimiento
</text>
<text x="145" y="74" fill="rgb(0,128,0)" fill-opacity="1.0" font-size="10" stroke="none">
DATE
</text>
<text x="16" y="88" fill="rgb(255,0,0)" fill-opacity="1.0" font-size="10" stroke="none">
*
</text>
<text x="26" y="88" fill="rgb(0,0,0)" fill-opacity="1.0" font-size="10" stroke="none">
correo
</text>
<text x="145" y="88" fill="rgb(0,128,0)" fill-opacity="1.0" font-size="10" stroke="none">
VARCHAR2 (4000)
</text>
<text x="16" y="102" fill="rgb(255,0,0)" fill-opacity="1.0" font-size="10" stroke="none">
*
</text>
<text x="26" y="102" fill="rgb(0,0,0)" fill-opacity="1.0" font-size="10" stroke="none">
telefono
</text>
<text x="145" y="102" fill="rgb(0,128,0)" fill-opacity="1.0" font-size="10" stroke="none">
NUMBER
</text>
<text x="16" y="116" fill="rgb(255,0,0)" fill-opacity="1.0" font-size="10" stroke="none">
*
</text>
<text x="26" y="116" fill="rgb(0,0,0)" fill-opacity="1.0" font-size="10" stroke="none">
direccion
</text>
<text x="145" y="116" fill="rgb(0,128,0)" fill-opacity="1.0" font-size="10" stroke="none">
VARCHAR2 (4000)
</text>
<text x="16" y="130" fill="rgb(255,0,0)" fill-opacity="1.0" font-size="10" stroke="none">

</text>
<text x="26" y="130" fill="rgb(0,0,0)" fill-opacity="1.0" font-size="10" stroke="none">
dpi
</text>
<text x="145" y="130" fill="rgb(0,128,0)" fill-opacity="1.0" font-size="10" stroke="none">
INTEGER
</text>
<text x="16" y="144" fill="rgb(255,0,0)" fill-opacity="1.0" font-size="10" stroke="none">

</text>
<text x="26" y="144" fill="rgb(0,0,0)" fill-opacity="1.0" font-size="10" stroke="none">
id_carrera
</text>
<text x="145" y="144" fill="rgb(0,128,0)" fill-opacity="1.0" font-size="10" stroke="none">
UNKNOWN
</text>
<text x="16" y="158" fill="rgb(255,0,0)" fill-opacity="1.0" font-size="10" stroke="none">
*
</text>
<text x="26" y="158" fill="rgb(0,0,0)" fill-opacity="1.0" font-size="10" stroke="none">
creditos
</text>
<text x="145" y="158" fill="rgb(0,128,0)" fill-opacity="1.0" font-size="10" stroke="none">
NUMBER
</text>
<text x="16" y="172" fill="rgb(255,0,0)" fill-opacity="1.0" font-size="10" stroke="none">
*
</text>
<text x="26" y="172" fill="rgb(0,0,0)" fill-opacity="1.0" font-size="10" stroke="none">
fecha_creacion
</text>
<text x="145" y="172" fill="rgb(0,128,0)" fill-opacity="1.0" font-size="10" stroke="none">
DATE
</text>
<text x="16" y="186" fill="rgb(255,0,0)" fill-opacity="1.0" font-size="10" stroke="none">
*
</text>
<text x="2" y="186" fill="rgb(0,0,0)" fill-opacity="1.0" font-size="10" stroke="none">
F
</text>
<text x="26" y="186" fill="rgb(0,0,0)" fill-opacity="1.0" font-size="10" stroke="none">
Carrerav2_id_carrera
</text>
<text x="145" y="186" fill="rgb(0,128,0)" fill-opacity="1.0" font-size="10" stroke="none">
NUMBER
</text>
<line x1="0" y1="192" x2="252" y2="192" fill="none" stroke="rgb(0,0,255)"/>
<use xlink:href="#pk_sym" x="4" y="199" width="8" height="8" fill-opacity="1.0"/>
<text x="16" y="206" fill="rgb(0,0,0)" fill-opacity="1.0" font-size="10" stroke="none">
Estudiantev1_PK (carnet)
</text>
<line x1="0" y1="212" x2="252" y2="212" fill="none" stroke="rgb(0,0,255)"/>
<use xlink:href="#fk_sym" x="4" y="219" width="8" height="8" fill-opacity="1.0"/><a xlink:href="#87983FD5-0FB0253B7DE8" >
<text x="16" y="226" fill="rgb(0,0,0)" fill-opacity="1.0" font-size="10" stroke="none">
Estudiantev2_Carrerav2_FK (Carrerav2_id_carrera)
</text></a>
</g>
<g  fill="rgb(255,255,180)" stroke="rgb(0,0,255)" fill-opacity="1.0" stroke-opacity="1.0" clip-path="url(#clipPath2_0_)" transform="translate(209,246)" >
<rect x="0" y="0" width="379" height="185" />
<text id="B883283A-D29DFF0CEC3F" x="148" y="14" fill="rgb(0,0,255)" font-weight="bold"  fill-opacity="1.0" font-size="10" stroke="none">
AsignacionCurso
</text>
<line x1="0" y1="18" x2="378" y2="18" fill="none" stroke="rgb(0,0,255)"/>
<text x="16" y="32" fill="rgb(255,0,0)" fill-opacity="1.0" font-size="10" stroke="none">

</text>
<text x="26" y="32" fill="rgb(0,0,0)" fill-opacity="1.0" font-size="10" stroke="none">
id
</text>
<text x="147" y="32" fill="rgb(0,128,0)" fill-opacity="1.0" font-size="10" stroke="none">
NUMBER
</text>
<text x="16" y="46" fill="rgb(255,0,0)" fill-opacity="1.0" font-size="10" stroke="none">
*
</text>
<text x="26" y="46" fill="rgb(0,0,0)" fill-opacity="1.0" font-size="10" stroke="none">
carnet
</text>
<text x="147" y="46" fill="rgb(0,128,0)" fill-opacity="1.0" font-size="10" stroke="none">
INTEGER
</text>
<text x="16" y="60" fill="rgb(255,0,0)" fill-opacity="1.0" font-size="10" stroke="none">
*
</text>
<text x="26" y="60" fill="rgb(0,0,0)" fill-opacity="1.0" font-size="10" stroke="none">
id_curso
</text>
<text x="147" y="60" fill="rgb(0,128,0)" fill-opacity="1.0" font-size="10" stroke="none">
NUMBER
</text>
<text x="16" y="74" fill="rgb(255,0,0)" fill-opacity="1.0" font-size="10" stroke="none">
*
</text>
<text x="26" y="74" fill="rgb(0,0,0)" fill-opacity="1.0" font-size="10" stroke="none">
ciclo
</text>
<text x="147" y="74" fill="rgb(0,128,0)" fill-opacity="1.0" font-size="10" stroke="none">
VARCHAR2 (4000)
</text>
<text x="16" y="88" fill="rgb(255,0,0)" fill-opacity="1.0" font-size="10" stroke="none">
*
</text>
<text x="26" y="88" fill="rgb(0,0,0)" fill-opacity="1.0" font-size="10" stroke="none">
seccion
</text>
<text x="147" y="88" fill="rgb(0,128,0)" fill-opacity="1.0" font-size="10" stroke="none">
CHAR
</text>
<text x="16" y="102" fill="rgb(255,0,0)" fill-opacity="1.0" font-size="10" stroke="none">
*
</text>
<text x="2" y="102" fill="rgb(0,0,0)" fill-opacity="1.0" font-size="10" stroke="none">
F
</text>
<text x="26" y="102" fill="rgb(0,0,0)" fill-opacity="1.0" font-size="10" stroke="none">
CursoHabilitadov2_id
</text>
<text x="147" y="102" fill="rgb(0,128,0)" fill-opacity="1.0" font-size="10" stroke="none">
NUMBER
</text>
<text x="16" y="116" fill="rgb(255,0,0)" fill-opacity="1.0" font-size="10" stroke="none">
*
</text>
<text x="2" y="116" fill="rgb(0,0,0)" fill-opacity="1.0" font-size="10" stroke="none">
F
</text>
<text x="26" y="116" fill="rgb(0,0,0)" fill-opacity="1.0" font-size="10" stroke="none">
Estudiantev2_carnet
</text>
<text x="147" y="116" fill="rgb(0,128,0)" fill-opacity="1.0" font-size="10" stroke="none">
INTEGER
</text>
<text x="16" y="130" fill="rgb(255,0,0)" fill-opacity="1.0" font-size="10" stroke="none">
*
</text>
<text x="2" y="130" fill="rgb(0,0,255)" fill-opacity="1.0" font-size="10" stroke="none">
P
</text>
<text x="26" y="130" fill="rgb(0,0,0)" fill-opacity="1.0" font-size="10" stroke="none">
AsignacionCursov1_ID
</text>
<text x="147" y="130" fill="rgb(0,128,0)" fill-opacity="1.0" font-size="10" stroke="none">
NUMBER
</text>
<line x1="0" y1="136" x2="378" y2="136" fill="none" stroke="rgb(0,0,255)"/>
<use xlink:href="#pk_sym" x="4" y="143" width="8" height="8" fill-opacity="1.0"/>
<text x="16" y="150" fill="rgb(0,0,0)" fill-opacity="1.0" font-size="10" stroke="none">
AsignacionCursov1_PK (AsignacionCursov1_ID)
</text>
<line x1="0" y1="156" x2="378" y2="156" fill="none" stroke="rgb(0,0,255)"/>
<use xlink:href="#fk_sym" x="4" y="163" width="8" height="8" fill-opacity="1.0"/><a xlink:href="#49B1F0C4-1FCF94C52E8D" >
<text x="16" y="170" fill="rgb(0,0,0)" fill-opacity="1.0" font-size="10" stroke="none">
AsignacionCursov2_CursoHabilitadov2_FK (CursoHabilitadov2_id)
</text></a>
<use xlink:href="#fk_sym" x="4" y="177" width="8" height="8" fill-opacity="1.0"/><a xlink:href="#9B6362F6-0BA719CACF04" >
<text x="16" y="184" fill="rgb(0,0,0)" fill-opacity="1.0" font-size="10" stroke="none">
AsignacionCursov2_Estudiantev2_FK (Estudiantev2_carnet)
</text></a>
</g>

</svg>